<?xml version="1.0" encoding="UTF-8"?>
<!DOCTYPE svg PUBLIC "-//W3C//DTD SVG 1.1//EN" "http://www.w3.org/Graphics/SVG/1.1/DTD/svg11.dtd">
<!-- Creator: CorelDRAW 2019 (64-Bit) -->
<svg xmlns="http://www.w3.org/2000/svg" xml:space="preserve" width="3.70203in" height="3.70203in" version="1.1" style="shape-rendering:geometricPrecision; text-rendering:geometricPrecision; image-rendering:optimizeQuality; fill-rule:evenodd; clip-rule:evenodd"
viewBox="0 0 1989.51 1989.51"
 xmlns:xlink="http://www.w3.org/1999/xlink"
 xmlns:xodm="http://www.corel.com/coreldraw/odm/2003">
 <defs>
  <style type="text/css">
   <![CDATA[
    .fil0 {fill:#0275D8}
    .fil1 {fill:white}
   ]]>
  </style>
 </defs>
 <g id="Layer_x0020_1">
  <metadata id="CorelCorpID_0Corel-Layer"/>
  <rect class="fil0" x="-0" y="-0" width="1989.51" height="1989.51"/>
  <g id="_2354159909888">
   <path class="fil1" d="M174.22 359.74c0,30.16 6.37,53.64 25.49,76.17 13.17,15.52 27.45,25.83 36.16,53.99 12.13,39.22 -8.48,34.8 84.12,34.8 27.77,0 9.77,-36.99 44.57,-74.35 10.93,-11.74 18.66,-17.98 26.43,-33.03 22.05,-42.69 16.52,-81.82 -9.62,-120.86l-13.88 12.98c29.73,43.6 22.26,91.22 -15.4,128.45 -8.84,8.74 -14.11,18.08 -19.98,29.89 -7.05,14.19 -8.28,21.27 -12.12,37.75l-61.38 0c-2.08,-24.99 -18.05,-53.8 -32.11,-67.62 -82.12,-80.72 1.39,-194.05 93.75,-162.8 20.76,7.03 26.43,20.55 40.02,0.26 -29.43,-19.71 -42.49,-23.02 -78.64,-23.02 -52.59,0 -107.41,50.36 -107.41,107.41z"/>
   <path class="fil1" d="M249.03 557.3l80.56 0c11.95,0 6.62,-15.46 5.75,-19.18 -17.92,-4.17 -61.61,-1.92 -82.48,-1.92 -17.28,0 -15.35,21.1 -3.84,21.1z"/>
   <path class="fil1" d="M249.03 587.99l80.56 0c11.99,0 9.29,-21.1 -1.92,-21.1l-74.8 0c-17.28,0 -15.35,21.1 -3.84,21.1z"/>
   <path class="fil1" d="M375.62 281.1c-8.04,2.15 -73.64,67.37 -80.61,70.92 -7.88,4.02 -28.61,4.16 -13.38,26.9 9.33,0 13.99,1.48 18.09,-5.05 6.43,-10.25 -4.36,-3.76 6.19,-14.65l24.18 -25.83c5.19,-5.11 6.07,-7.41 10.54,-12.48 6.32,-7.17 33.19,-33.08 34.99,-39.81z"/>
   <path class="fil1" d="M275.88 612.92l28.77 0c6.61,0 10.96,-6.8 11.51,-13.42l-53.71 0c0.74,8.93 3.92,13.42 13.43,13.42z"/>
   <path class="fil1" d="M214.5 330.98c4.51,2.16 7,1.67 11.51,3.83 5.45,-10.31 11.26,-15.97 17.26,-24.93 -6.11,-4.48 -1.56,-3.19 -7.67,-7.67 -9.27,6.21 -18.18,16.25 -21.1,28.77z"/>
   <path class="fil1" d="M295.06 290.69c0,7.31 5.01,5.28 12.12,7.06 6.95,1.75 9.29,3.83 16.65,4.45 3.73,-5.57 3.88,-2.57 5.75,-9.59 -12.91,-6.83 -19.26,-9.59 -34.53,-9.59l0 7.67z"/>
   <path class="fil1" d="M247.11 292.61c10.35,15.46 6.78,9.31 22.4,5.13 11.86,-3.17 12.13,2.37 12.13,-14.72 -15.27,0 -21.61,2.76 -34.53,9.59z"/>
   <path class="fil1" d="M206.83 357.83l0 9.59 13.43 0c0,-14.5 1.21,-10.73 1.92,-19.18 -4.21,-2.02 -7.55,-3.35 -13.43,-3.84 -0.5,6 -1.92,6.81 -1.92,13.43z"/>
   <polygon class="fil1" points="383.29,273.43 385.21,273.43 383.61,271.2 "/>
   <polygon class="fil1" points="383.29,273.43 381.37,275.35 "/>
   <polygon class="fil1" points="381.37,275.35 379.45,277.27 "/>
   <polygon class="fil1" points="379.45,277.27 377.54,279.19 "/>
   <polygon class="fil1" points="377.54,279.19 375.62,281.1 "/>
  </g>
 </g>
</svg>
